<?xml version="1.0" encoding="UTF-8" standalone="no"?>
<svg
   xmlns:dc="http://purl.org/dc/elements/1.1/"
   xmlns:cc="http://creativecommons.org/ns#"
   xmlns:rdf="http://www.w3.org/1999/02/22-rdf-syntax-ns#"
   xmlns:svg="http://www.w3.org/2000/svg"
   xmlns="http://www.w3.org/2000/svg"
   xmlns:sodipodi="http://sodipodi.sourceforge.net/DTD/sodipodi-0.dtd"
   xmlns:inkscape="http://www.inkscape.org/namespaces/inkscape"
   viewBox="0 0 1.65 0.82500095"
   width="33"
   height="16.500019"
   id="svg2"
   version="1.1"
   inkscape:version="0.91 r13725"
   sodipodi:docname="uk.svg">
  <metadata
     id="metadata21">
    <rdf:RDF>
      <cc:Work
         rdf:about="">
        <dc:format>image/svg+xml</dc:format>
        <dc:type
           rdf:resource="http://purl.org/dc/dcmitype/StillImage" />
        <dc:title></dc:title>
      </cc:Work>
    </rdf:RDF>
  </metadata>
  <defs
     id="defs19" />
  <sodipodi:namedview
     pagecolor="#ffffff"
     bordercolor="#666666"
     borderopacity="1"
     objecttolerance="10"
     gridtolerance="10"
     guidetolerance="10"
     inkscape:pageopacity="0"
     inkscape:pageshadow="2"
     inkscape:window-width="1920"
     inkscape:window-height="980"
     id="namedview17"
     showgrid="false"
     inkscape:zoom="0.41786427"
     inkscape:cx="600"
     inkscape:cy="300"
     inkscape:window-x="0"
     inkscape:window-y="24"
     inkscape:window-maximized="1"
     inkscape:current-layer="svg2"
     fit-margin-top="0"
     fit-margin-left="0"
     fit-margin-right="0"
     fit-margin-bottom="0" />
  <clipPath
     id="t">
    <path
       d="m 30,15 30,0 0,15 z m 0,0 0,15 -30,0 z M 30,15 0,15 0,0 Z m 0,0 0,-15 30,0 z"
       id="path5"
       inkscape:connector-curvature="0" />
  </clipPath>
  <path
     d="M 0,9.9999999e-7 0,0.825001 l 1.65,0 0,-0.82500000000001 z"
     id="path7"
     inkscape:connector-curvature="0"
     style="fill:#00247d" />
  <path
     style="color:#000000;font-style:normal;font-variant:normal;font-weight:normal;font-stretch:normal;font-size:medium;line-height:normal;font-family:sans-serif;text-indent:0;text-align:start;text-decoration:none;text-decoration-line:none;text-decoration-style:solid;text-decoration-color:#000000;letter-spacing:normal;word-spacing:normal;text-transform:none;direction:ltr;block-progression:tb;writing-mode:lr-tb;baseline-shift:baseline;text-anchor:start;white-space:normal;clip-rule:nonzero;display:inline;overflow:visible;visibility:visible;opacity:1;isolation:auto;mix-blend-mode:normal;color-interpolation:sRGB;color-interpolation-filters:linearRGB;solid-color:#000000;solid-opacity:1;fill:#ffffff;fill-opacity:1;fill-rule:nonzero;stroke:none;stroke-width:6;stroke-linecap:butt;stroke-linejoin:miter;stroke-miterlimit:4;stroke-dasharray:none;stroke-dashoffset:0;stroke-opacity:1;color-rendering:auto;image-rendering:auto;shape-rendering:auto;text-rendering:auto;enable-background:accumulate"
     d="M 0.18450781,9.9999999e-7 0,9.9999999e-7 0,0.09225 0.64050293,0.412501 0,0.732752 l 0,0.092249 0.18450781,0 L 0.825,0.504776 1.4654922,0.825001 1.65,0.825001 1.65,0.732752 1.0094971,0.412501 1.65,0.09225 1.65,0 1.4654922,0 0.825,0.320226 0.18450781,9.9999999e-7 Z"
     id="path4167"
     inkscape:connector-curvature="0" />
  <path
     d="M 0,0 60,30 M 60,0 0,30"
     clip-path="url(#t)"
     id="path11"
     inkscape:connector-curvature="0"
     transform="matrix(0.0275,0,0,0.0275,0,10e-7)"
     style="stroke:#cf142b;stroke-width:4" />
  <path
     d="M 0.825,9.9999999e-7 0.825,0.825001 M 0,0.412501 l 1.65,0"
     id="path13"
     inkscape:connector-curvature="0"
     style="stroke:#ffffff;stroke-width:0.27500001" />
  <path
     d="M 0.825,9.9999999e-7 0.825,0.825001 M 0,0.412501 l 1.65,0"
     id="path15"
     inkscape:connector-curvature="0"
     style="stroke:#cf142b;stroke-width:0.16500001" />
</svg>
