<?xml version="1.0" encoding="UTF-8" standalone="no"?>
<!-- Created with Inkscape (http://www.inkscape.org/) -->

<svg
   xmlns:dc="http://purl.org/dc/elements/1.1/"
   xmlns:cc="http://creativecommons.org/ns#"
   xmlns:rdf="http://www.w3.org/1999/02/22-rdf-syntax-ns#"
   xmlns:svg="http://www.w3.org/2000/svg"
   xmlns="http://www.w3.org/2000/svg"
   xmlns:sodipodi="http://sodipodi.sourceforge.net/DTD/sodipodi-0.dtd"
   xmlns:inkscape="http://www.inkscape.org/namespaces/inkscape"
   width="406"
   height="66.858002"
   viewBox="0 0 107.42083 17.689514"
   version="1.1"

   inkscape:version="0.92.2 (5c3e80d, 2017-08-06)"
   sodipodi:docname="salmefelt-logo.svg">
  <defs  />
  <g

     transform="translate(-39.000599,-218.84836)">
    <g

       className="sf-logo"
       transform="matrix(0.26458324,0,0,0.26458324,34.011616,216.85619)">
      <g

         className="whole-hat">
        <path

           d="m 40.03,9.43 a 23.818,40 0 0 0 -21.537,23.025 27.629,27.159 0 0 1 0.40379,-0.52149 27.629,27.159 0 0 1 1.8831,-1.9863 27.629,27.159 0 0 1 2.0748,-1.791 27.629,27.159 0 0 1 2.246,-1.5801 27.629,27.159 0 0 1 2.3967,-1.3496 27.629,27.159 0 0 1 2.5195,-1.1094 27.629,27.159 0 0 1 2.6218,-0.85743 27.629,27.159 0 0 1 2.6944,-0.59375 27.629,27.159 0 0 1 2.7409,-0.32617 27.629,27.159 0 0 1 1.9557,-0.0684 27.629,27.159 0 0 1 2.7577,0.13477 27.629,27.159 0 0 1 2.7316,0.40625 27.629,27.159 0 0 1 2.6758,0.67187 27.629,27.159 0 0 1 2.5939,0.92969 27.629,27.159 0 0 1 2.486,1.1816 27.629,27.159 0 0 1 2.3558,1.4199 27.629,27.159 0 0 1 2.1976,1.6426 27.629,27.159 0 0 1 2.0208,1.8496 27.629,27.159 0 0 1 1.7082,1.9102 23.818,40 0 0 0 -21.527,-22.988 z"
           className="hat" />
        <path

           d="m 54.19,18.15 a 25,40 1.5 0 1 1.5805,2.1671 25,40 1.5 0 1 1.701,2.8619 25,40 1.5 0 1 1.147,2.3824 40,29.999 1.5 0 0 21.018,-25.566 40,20.318 1.5 0 1 -0.25228,2.0234 40,20.318 1.5 0 1 -0.65,1.9915 40,20.318 1.5 0 1 -1.0394,1.9402 40,20.318 1.5 0 1 -1.4206,1.8716 40,20.318 1.5 0 1 -1.7875,1.782 40,20.318 1.5 0 1 -2.1364,1.6771 40,20.318 1.5 0 1 -2.4595,1.5533 40,20.318 1.5 0 1 -2.7626,1.4145 40,20.318 1.5 0 1 -3.0379,1.2607 40,20.318 1.5 0 1 -3.2837,1.0961 40,20.318 1.5 0 1 -3.492,0.91867 40,20.318 1.5 0 1 -3.1249,0.62544 z"
           className="right-horn" />
        <path

           d="m 0.4,0.02 a 29.999,40 88.5 0 0 21.018,25.544 40,25 88.5 0 1 0.0864,-0.2074 40,25 88.5 0 1 1.5692,-3.048 40,25 88.5 0 1 1.7541,-2.7773 40,25 88.5 0 1 1.0509,-1.3522 20.318,40 88.5 0 1 -0.57288,-0.0905 20.318,40 88.5 0 1 -3.6235,-0.79019 20.318,40 88.5 0 1 -3.4348,-0.97096 20.318,40 88.5 0 1 -3.2127,-1.1448 20.318,40 88.5 0 1 -2.961,-1.3077 20.318,40 88.5 0 1 -2.6777,-1.4558 20.318,40 88.5 0 1 -2.3686,-1.5909 20.318,40 88.5 0 1 -2.0357,-1.709 A 20.318,40 88.5 0 1 3.31092,7.30915 20.318,40 88.5 0 1 2.00112,5.41505 20.318,40 88.5 0 1 1.07257,3.45625 20.318,40 88.5 0 1 0.53755,1.45395 20.318,40 88.5 0 1 0.40036,0.01955 Z"
           className="left-horn" />
      </g>
      <path

         d="m 56.22,59.77 q 0,6.65 -4.8125,10.675 -4.8125,3.9375 -12.338,3.9375 -5.075,0 -10.588,-1.8375 -5.425,-1.8375 -9.625,-5.1625 l 4.725,-7.6125 q 8.1375,6.125 15.75,6.125 3.325,0 5.25,-1.4875 1.925,-1.575 1.925,-3.9375 0,-3.5 -9.275,-6.3 -0.7,-0.2625 -1.05,-0.35 -14.525,-3.9375 -14.525,-13.125 0,-6.475 4.9875,-10.325 5.075,-3.9375 13.125,-3.9375 8.05,0 15.225,4.725 l -3.676,7.263 Q 45.6305,34.658 38.98,34.658 q -3.5,0 -5.6875,1.3125 -2.1875,1.225 -2.1875,3.7625 0,2.275 2.275,3.325 1.575,0.7875 4.375,1.4875 2.8875,0.7 5.075,1.4 2.1875,0.7 4.2,1.575 2.1,0.875 4.4625,2.45 4.725,3.15 4.725,9.8 z"
         className="sf-logo-letter sf-logo-letter-one" />
      <path

         d="m 105.03,73.68 h -8.925 v -6.2125 q -5.775,6.912 -15.488,6.912 -7.2625,0 -12.075,-4.1125 -4.725,-4.1125 -4.725,-10.938 0,-6.9125 5.075,-10.325 5.075,-3.4125 13.738,-3.4125 h 12.688 v -1.75 q 0,-9.275 -10.325,-9.275 -6.475,0 -13.475,4.725 l -4.375,-6.125 q 8.4875,-6.7375 19.25,-6.7375 8.225,0 13.388,4.2 5.25,4.1125 5.25,13.038 V 73.679 Z M 95.23,56.355 V 52.4175 H 84.205 q -10.588,0 -10.588,6.65 0,3.4125 2.625,5.25 2.625,1.75 7.2625,1.75 4.725,0 8.225,-2.625 3.5,-2.625 3.5,-7.0875 z"
         className="sf-logo-letter sf-logo-letter-two" />
      <path

         d="m 128.56,73.68 h -9.8 V 8.755 h 9.8 z"
         className="sf-logo-letter sf-logo-letter-three" />
      <path

         d="m 152.48,48.48 v 25.2 h -9.8 V 27.13 h 9.8 v 8.4875 q 2.1,-4.2875 6.3,-6.7375 4.2875,-2.45 9.1875,-2.45 11.025,0 14.962,9.1 6.9125,-9.1 17.238,-9.1 7.875,0 12.688,4.8125 4.9,4.8125 4.9,13.912 v 28.525 h -9.8 v -25.55 q 0,-12.862 -10.675,-12.862 -4.9875,0 -8.75,3.2375 -3.675,3.15 -3.85,9.275 v 25.9 h -9.8 V 48.13 q 0,-6.65 -2.3625,-9.7125 -2.3625,-3.15 -7.4375,-3.15 -5.075,0 -8.8375,3.4125 -3.7625,3.325 -3.7625,9.8 z"
         className="sf-logo-letter sf-logo-letter-four" />
      <path

         d="m 274.69,54.7 h -36.488 q 0.35,5.075 4.6375,8.225 4.2875,3.0625 9.8,3.0625 8.75,0 13.3,-5.5125 l 5.6,6.125 q -7.525,7.7875 -19.6,7.7875 -9.8,0 -16.712,-6.475 -6.825,-6.5625 -6.825,-17.5 0,-11.025 7,-17.5 7,-6.475 16.45,-6.475 9.5375,0 16.188,5.775 6.65,5.6875 6.65,15.75 V 54.7 Z M 238.2,47 h 26.69 q 0,-5.8625 -3.675,-9.0125 -3.675,-3.15 -9.1,-3.15 -5.3375,0 -9.625,3.325 -4.29,3.237 -4.29,8.837 z"
         className="sf-logo-letter sf-logo-letter-five" />
      <path

         d="m 297.11,23.28 v 3.85 h 12.25 v 7.875 H 297.11 V 73.68 h -9.8 V 35.005 h -5.8625 V 27.13 h 5.8625 v -3.5875 c 0,-4.9 1.45833,-8.779333 4.375,-11.638 2.975,-2.9166667 6.53333,-4.3750338 10.675,-4.3750338 4.2,0 8.02067,1.5458671 11.462,4.6375338 l -4.025,6.9125 c -1.925,-2.041667 -3.9375,-3.0625 -6.0375,-3.0625 -2.1,0 -3.73333,0.670833 -4.9,2.0125 -1.16667,1.283333 -1.75,3.033333 -1.75,5.25 z"
         className="sf-logo-letter sf-logo-letter-six" />
      <path

         d="m 362.19,54.7 h -36.488 q 0.35,5.075 4.6375,8.225 4.2875,3.0625 9.8,3.0625 8.75,0 13.3,-5.5125 l 5.6,6.125 q -7.525,7.7875 -19.6,7.7875 -9.8,0 -16.712,-6.475 -6.825,-6.5625 -6.825,-17.5 0,-11.025 7,-17.5 7,-6.475 16.45,-6.475 9.5375,0 16.188,5.775 6.65,5.6875 6.65,15.75 V 54.7 Z M 325.7,47 h 26.69 q 0,-5.8625 -3.675,-9.0125 -3.675,-3.15 -9.1,-3.15 -5.3375,0 -9.625,3.325 -4.29,3.237 -4.29,8.837 z"
         className="sf-logo-letter sf-logo-letter-seven" />
      <path

         d="m 382.68,73.68 h -9.8 V 8.755 h 9.8 z"
         className="sf-logo-letter sf-logo-letter-eight" />
      <path
         
         d="m 408.88,35.01 v 23.625 q 0,3.325 1.75,5.3375 1.75,1.925 4.9,1.925 3.15,0 6.0375,-3.0625 l 4.025,6.9125 q -5.1625,4.6375 -11.462,4.6375 -6.2125,0 -10.675,-4.2875 -4.375,-4.375 -4.375,-11.725 v -23.362 h -5.8625 v -7.875 h 5.8625 v -14.612 h 9.8 v 14.612 h 12.25 v 7.875 h -12.25 z"
         className="sf-logo-letter sf-logo-letter-nine" />
    </g>
  </g>
</svg>
